<?xml version="1.0" encoding="utf-8"?>
<!-- Generator: Adobe Illustrator 18.0.0, SVG Export Plug-In . SVG Version: 6.00 Build 0)  -->
<!DOCTYPE svg PUBLIC "-//W3C//DTD SVG 1.1//EN" "http://www.w3.org/Graphics/SVG/1.1/DTD/svg11.dtd">
<svg version="1.1" id="圖層_1" xmlns="http://www.w3.org/2000/svg" xmlns:xlink="http://www.w3.org/1999/xlink" x="0px" y="0px"
	 viewBox="0 0 1190.6 841.9" enable-background="new 0 0 1190.6 841.9" xml:space="preserve">
<path fill="#B1A0A0" d="M451.3,420.3c5.1,29.7,19,57,57.3,70c19.1,6.5,50.3,12.8,70.3,14.7c14.1,1.3,34.8,1.9,49,2
	c38.2,0.4,67.6-8.9,105-17c12.9-2.8,28.5-9.9,38.8-18.1c10.3-8.2,16.6-23.1,10.7-34.8c-5.2-10.4-17.5-14.9-29-16.9
	c-20.5-3.7-41.8-2.9-61.9,2.5"/>
<path fill="#B1A0A0" d="M476,434.3c4.2,24.7,24.2,44,47.3,52c15.8,5.5,31.7,9.9,48.3,11.5c11.7,1.1,28.9,1.5,40.7,1.7
	c31.8,0.3,56.2-7.4,87.3-14.1c10.7-2.3,23.7-8.3,32.2-15c8.6-6.8,13.8-19.2,8.9-29c-4.3-8.6-14.6-12.4-24.1-14.1
	c-17-3.1-34.8-2.4-51.5,2.1"/>
<path fill="#59754C" d="M403.4,385c0.2,13.1,68.6,105.2,199.3,105.2c136,0,189.7-93.6,190.6-102.5L403.4,385z"/>
<path opacity="0.5" fill="#3E5831" d="M602.7,490.3c136,0,189.7-93.6,190.6-102.5l-132.6-14.2c-9.4,30.8-20,69.3-47.3,89.3
	c-27.3,20-42.5,22.3-67.8,21.1C563,488,582.1,490.3,602.7,490.3z"/>
<path opacity="0.5" fill="#3E5831" d="M602.7,490.3c136,0,189.7-93.6,190.6-102.5l-43.9,1.1c-9.4,30.8-56,68-104,89.3
	c-28.9,12.8-72,12.7-99.8,5.8C563,488,582.1,490.3,602.7,490.3z"/>
<g>
	<ellipse fill="#718B66" cx="598.8" cy="385" rx="195.5" ry="69"/>
</g>
<g>
	<ellipse fill="#4C6942" cx="598.8" cy="382.7" rx="189.3" ry="64.5"/>
</g>
<path fill="#ACBEA5" d="M409.3,368.1c0,0-12.2,12.3,1.2,32.3s62.3,47.3,145,52c0,0-86-8.5-127-38.5
	C395,389.4,409.3,368.1,409.3,368.1z"/>
<path fill="#ACBEA5" d="M779,358.9c0,0,16.5,11,14.5,26s-0.7,30-75.1,55c0,0,72.1-22,72.6-55C791.3,368.4,779,358.9,779,358.9z"/>
<path fill="#718B66" d="M475,442.4c0,0,18,24,48.5,33c0,0-20-7-22-25.5C501.5,449.9,483.5,447.9,475,442.4z"/>
<g>
	<path fill="#3D5832" d="M506.3,326.4c-57.7,11-96.8,32.1-96.8,56.3c0,18.1,22,34.5,57.4,46.3c-18.7-19.1-28.6-43.4-10.9-68
		C468.1,344.2,487.1,333.4,506.3,326.4z"/>
	<g>
		<path fill="#EFF3F9" d="M410,378.4c2.3-9.1,6-24,7.8-33.3c2.3-11.9,8.9-22.3,16-31.6c0.2-13-1-28.7,10.1-36.9
			c4.5-3.4,4.5-9.4,7.1-13.3c3.9-5.6,11.7-9.3,14.5-12.5c0.5-11.5,14.4-23.6,19-26.2c4.5-2.6,17.9,0.1,24.4-6.3
			c-0.1-1.2-0.2-2.4-0.3-3.6c1.4-5.8,6.2-10.3,11.6-10.9c2-0.2,4.2,0,6.1-0.8c2-0.9,3.5-2.9,5.5-3.5c2.1-0.6,3.4-10.5,2.2-8.6
			c10-9,13.5-5,23.5-14c1.8-1.7,11.4-3.9,13.5-5.3c13.8-9.7,34.5-7.5,44.5-8.6c11.6-1.3,11.7,9.6,23,12.8c4.7,1.4,17.3-0.8,22,0.6
			c2.4,0.7,11.2,11,10.2,13.5c1.3-2.8,5.4-1.8,7,0.8c1.6,2.6,1.9,6,3.4,8.7c1.8,3.3,5,5.2,8.1,6.9c7.3,4.1,14.5,8.2,21.8,12.3
			c3.9,2.2,7.7,4.4,11.5,6.8c11.9,7.9,18.2,12.9,26.1,25.7c-1.1,2.2,1.8,10.2,0.7,12.4c3.6,6.3,6.8,12.7,10.1,19.2
			c3,6,6.2,9.7,12.2,15.2c5.6,5.2,4,16.7,7.6,23.8c3.4,6.7,6.9,14.5,4.7,21.8c-0.4,1.4-1,2.8-1.2,4.3c-0.1,2,0.6,3.9,1.3,5.7
			c2.7,7.7,3,16.4,0.9,24.4c0,0-0.3,16.5-2.3,19.4s-33.3,49.8-183.7,49.8S404.2,401.5,410,378.4z"/>
	</g>
	<g>
		<path fill="#CFDDEA" d="M598.8,447.2c150.3,0,181.7-46.8,183.7-49.8c2-3,2.3-19.4,2.3-19.4c2.1-7.9,1.8-16.6-0.9-24.4
			c-0.6-1.9-1.4-3.8-1.3-5.7c0.1-1.5,0.7-2.9,1.2-4.3c2.2-7.3-1.4-15.1-4.7-21.8c-3.6-7.1-2-18.6-7.6-23.8c-6-5.6-9.1-9.3-12.2-15.2
			c-3.3-6.5-6.5-12.9-10.1-19.2c1.1-2.2-1.8-10.2-0.7-12.4c-7.8-12.7-14.2-17.8-26.1-25.7c-3.7-2.5-7.6-4.7-11.5-6.8
			c-7.3-4.1-14.5-8.2-21.8-12.3c-3.1-1.7-6.3-3.6-8.1-6.9c-1.5-2.7-1.7-6.1-3.4-8.7c-1.6-2.6-5.8-3.7-7-0.8
			c1.1-2.5-7.8-12.8-10.2-13.5c-4.7-1.4-17.3,0.8-22-0.6c-2.6-0.7-4.6-1.9-6.3-3.2c-1.1,2.6-1.7,5.4-1.2,8.1c0.7,4,4.4,7.6,8.4,7
			c-0.9,3.3-2.6,6.5-4.9,9.1c4.1,3.2,8.8,5.5,13.8,6.8c0.6,4.6,2.1,9.2,4.3,13.3c4.1-0.8,8.5-0.2,12.2,1.6c-4.1,1.7-1.9,8,0.8,11.6
			c2.7,3.6,4.3,10.2,0,11.3c2.3,1.7,5.6,2,8.2,0.8c1.6,4.1,0.7,9-2.3,12.2c5.1,1.8,6.5,8.4,6.4,13.8s-0.7,11.6,2.9,15.6
			c5.8,6.5,19.4,4,22,12.3c2,6.3-4.8,11.6-8.1,17.4c-4.5,7.8-1.8,19,5.8,23.9c-2.1,2.1-5,3.3-7.9,3.5c-0.6,5.8-3,11.5-6.9,15.9
			c7.5,0.6,12.1,11,7.4,17c-3,3.8-8.6,5.4-10.9,9.7c-1.2,2.2-1.3,4.7-1.9,7.1c-1.9,8-9.1,14.5-17.2,15.6c-4.6,0.6-9.4-0.3-13.7,1.4
			c-4.3,1.7-7.3,7.8-3.9,10.9c-8.1-0.6-13.1,8.6-19.9,13.1c-8.6,5.7-20,3.8-30.1,1.6c2,0.4-0.7,3.1-2.7,2.9
			c-26.1-2.2-52-5.8-77.7-10.8c-7.5-1.5-16.3-4.1-18.6-11.4c-14.3,1.1-29.3,4.1-41,12C485.4,438,531.5,447.2,598.8,447.2z"/>
	</g>
	<g opacity="0.5">
		<g>
			<path fill="#CFDDEA" d="M782.7,347.9c0.1-1.5,0.7-2.9,1.2-4.3c2.2-7.3-1.4-15.1-4.7-21.8c-3.6-7.1-2-18.6-7.6-23.8
				c-6-5.6-9.1-9.3-12.2-15.2c-3.3-6.5-6.5-12.9-10.1-19.2c1.1-2.2-1.8-10.2-0.7-12.4c-7.8-12.7-14.2-17.8-26.1-25.7
				c-3.7-2.5-7.6-4.7-11.5-6.8c-7.3-4.1-14.5-8.2-21.8-12.3c-3.1-1.7-6.3-3.6-8.1-6.9c-1.5-2.7-1.7-6.1-3.4-8.7
				c-1-1.6-2.9-2.6-4.5-2.5c-0.2,0.9-0.5,1.7-0.6,2.6c-0.9,6.9,6.2,11.7,12.1,15.4c5.8,3.7,11.8,10.9,8,16.7
				c8.4,8.4,18.8,14.8,30.1,18.6c3.5,1.2,7.1,2.1,9.8,4.6c7.2,6.7,3.2,19.9,9.8,27.2c1.9,2.1,4.6,3.5,6.3,5.9
				c1.9,2.8,2.1,6.3,2.2,9.7c0.4,11.7,0.7,23.5-2.3,34.8s8,24.1-2.6,29.1c-1.6,0.8-10.8,8.6-12,10c-2,2.4-6.5,1.6-7.3,4.7
				s-3.8,12.1-5.3,9.3c-8.9,12.4,4.3,17.6-4.7,30c-1.1,1.6-25,6.4-26.7,7.3c-2.8,1.6-5.4,16.9-14.7,8.7c-9.9-8.8-28.3-11.3-35.9-0.5
				c-2.3,3.2-4.5,7.2-8.4,7.8c-6.4,0.9-9.4-7.5-14.3-11.8c-6.1-5.4-15.4-3.9-23.4-2.1c-9.6,2.2-19.3,4.4-28.9,6.5
				c-2.8,0.6-5.8,1.3-8.6,0.6c-5-1.1-8.3-6-12.7-8.6c-10.9-6.5-24.4,1.4-36.5,5.1c-14.9,4.6-31.8,2.6-45.1-5.5c0,3.9,0,7.8-0.1,11.7
				c-3.6-13.1-19.7-16.1-33.8-15.9c24.8,19,77.3,36.9,171.3,36.9c150.3,0,181.7-46.8,183.7-49.8c2-3,2.3-19.4,2.3-19.4
				c2.1-7.9,1.8-16.6-0.9-24.4C783.3,351.8,782.5,349.9,782.7,347.9z"/>
		</g>
		<g>
			<path fill="#CFDDEA" d="M534,190.9c0.1-0.1,0.2-0.2,0.3-0.2C534.2,190.7,534.1,190.8,534,190.9z"/>
		</g>
		<g>
			<path fill="#CFDDEA" d="M526.1,223.2c-4.4-2.8-7.3-7.9-7.5-13.1c10.5-1.7,21.1-3.3,31.6-5c-3.2-6.2-6.4-13.1-7.8-19.9
				c-2.3,1-4.9,2.5-8.1,5.4c0.7,0-0.6,8.3-2.5,8.8c-2.1,0.6-3.6,2.6-5.5,3.5c-1.9,0.9-4.1,0.6-6.1,0.8c-5.3,0.6-10.1,5.2-11.6,10.9
				c0.1,1.2,0.2,2.4,0.3,3.6c-1.4,1.4-3.1,2.3-5,3C510.7,224.9,518.8,225.7,526.1,223.2z"/>
		</g>
	</g>
	<g>
		<path fill="#CFDDEA" d="M496.7,286.2c2-1,3.6-2.7,4.7-4.6c0.9,2.3,1.4,4.9,1.4,7.4c1.8-1,3.5-2.1,5.3-3.1c0.1,2.5,1,5,2.5,7.1
			c1.7-1.6,3.6-3,5.6-4.1c1.5,3.2,2.9,6.4,4.4,9.6c2.2-2.2,6.6-1.1,7.5,1.9c1.7-0.3,3.4-0.6,5-0.9c1.3-3.4,2.4-8-0.6-10.2
			c-2.6-1.9-6.5-0.3-9.5-1.4c-1.6-0.6-2.9-1.9-4.1-3.2c-4.2-4.7-8.5-9.3-12.7-14c-1.1-1.2-2.3-2.5-3.8-3.1c-2.7-1.2-5.8-0.3-8.8,0
			c-4.3,0.5-8.8-0.3-13,0.9s-8.1,5.4-6.6,9.5c-0.1-0.8-0.1-1.6-0.2-2.4c1,6.4-4.5,11.8-9.9,15.3c-3,2-6.6,5.2-5.1,8.5
			c3.8,3.2,7.7,6.5,11.5,9.7c1.6-3.1,2.1-7.3,5.3-8.8c1-0.5,2.1-0.5,3.2-0.8c4.9-1.1,8.7-5.8,8.8-10.8c3.1,0.2,6.3-1.4,7.9-4.1"/>
	</g>
	<g>
		<path fill="#CFDDEA" d="M567.1,259.1c-1.4-2.3,0.6-5.3,3.1-6.4c2.5-1.1,5.3-0.9,7.9-1.5c5.2-1.2,9.6-5.6,10.6-10.9
			c2.7,0,4.9,2.1,7.5,2.6c2.7,0.5,5.4-0.7,8.1-1.1c4.4-0.7,9,1,12,4.3c-3.9,1.9-8.7,1.8-12.6-0.1c0.9,2.1-0.7,4.7-2.8,5.7
			c-2.1,1-4.6,0.8-6.9,0.6c-2.1,3.6-4.4,7-7.1,10.2c-1.3-1.5-3.5-2.3-5.4-2c-1.3,0.2-2.5,0.8-3.7,1.2c-2.6,0.9-5.5,1-8.2,0.2
			c-1.4-0.4-2.8-2.3-1.6-3"/>
	</g>
	<g>
		<path fill="#CFDDEA" d="M552.4,347c0.3,0.6-0.9,1-1.3,0.4s0-1.4,0.4-1.9c3.7-4.9,11.5-6.1,16.4-2.4c1.2,0.9,2.2,2,3.5,2.7
			c3.2,1.7,7,0.7,10.6,0.6c11.5-0.4,22,10.8,21,22.2c4.7,1.3,5.9,7.4,5.7,12.3c-2.5-1-2-5.2,0.3-6.6s5.3-0.9,8-0.4
			c2.7,0.5,5.6,1,8-0.4c3.9-2.4,3.3-8.5,0.5-12.1c-2.8-3.6-6.9-6-9.8-9.6c-3.9-5-5.8-12.7-12-14.1c-1.5-0.3-3.2-0.3-4.4-1.2
			c-1.3-0.9-1.7-2.6-2.9-3.6c-2-1.8-5-1.2-7.7-1.2c-7.9-0.1-15-6.9-22.8-5.7c-5.2,0.8-9.2,5-14,7.1c-6.8,3-14.8,1.7-22.1,3.6
			c-1.5,1.5,1.5,3.1,3.6,3.4c7.1,1.1,12.6,8.2,19.7,8"/>
	</g>
	<g>
		<g>
			<path fill="#CFDDEA" d="M608.7,350.2c0.2,0.2,0.4,0.4,0.7,0.7c0.5,0.5,1.4,0.3,1.9,0.1c0.4-0.2,1.2-0.8,0.7-1.3
				c-0.2-0.2-0.4-0.4-0.7-0.7c-0.5-0.5-1.4-0.3-1.9-0.1C609,349.1,608.2,349.7,608.7,350.2L608.7,350.2z"/>
		</g>
	</g>
	<g>
		<path fill="#CFDDEA" d="M749.6,380.4c-0.3,0.5,0.8,0.8,1,0.2c0.2-0.5-0.2-1.1-0.6-1.5c-3.9-3.7-10.5-3.9-14.6-0.4
			c-1.3,1.1-2.4,2.5-4,2.9c-0.9,0.2-1.8,0.1-2.7,0.3c-1.7,0.3-3.1,1.4-4.3,2.6c-4.2,3.9-7.9,8.4-10.8,13.4
			c6.2-6.4,17.7-1.9,25.4-6.3c1-0.6,2-1.3,3.1-1.7c3.6-1.3,7.4,1.5,9.4,4.7c0.4,0.7,0.8,1.4,1.5,1.9c0.9,0.6,2,0.6,3.1,0.6
			c3.5,0,6.9-0.1,10.4-0.1c0.9-2,3.7-2.9,5.6-1.8c-0.8-1.8-1.5-3.6-2.3-5.5c0.7,0.2,0.1,1.3-0.6,1.2c-0.7-0.1-1.1-0.8-1.4-1.4
			c-1.1-1.8-3.1-3-5.2-3.1c-1.6-0.1-3.2,0.3-4.7,0c-1.6-0.3-3.1-1.8-2.6-3.3c-2.5-0.5-4.9-1.3-7.2-2.2"/>
	</g>
	<g>
		<path fill="#CFDDEA" d="M427,338.7c1.9-1.7,3.9-3.4,6.3-4.1s5.4-0.2,6.8,1.9c0.6,0.9,0.9,2,1.4,3c2.3,4.4,8.4,4.6,13.4,4.1
			c4.9-0.5,11.1-0.5,13.5,3.9c0.6,1.1,0.9,2.4,1.3,3.6c0.7,1.8,1.7,3.4,2.7,5c4.3,7,7.7,14.6,10.2,22.4c0.2,0.7,0.4,1.5,0.4,2.3
			c-0.1,0.9-0.5,1.8-0.9,2.6c-1.4,3-2.2,6.2-2.3,9.5c-0.1-3.5-0.2-7.3-2.2-10.3s-6.5-4.5-9.1-2.1c0.3-2.5,0.6-5.1-0.2-7.4
			s-3.1-4.5-5.5-4.2c-2.2,0.2-4,2.2-6.2,2.2c-3.3,0.1-5.1-3.7-5.9-6.9s-2-7.1-5.2-7.7c-3.7-0.7-7.9,3.5-10.8,1.1
			c-2.4-2-0.8-6.3-3-8.6c-0.9-0.9-2.3-1.2-3.6-1.5c-2.1-0.4-4.3-0.8-6.4-1.2c-0.7-2.6,0.2-5.5,2.1-7.3"/>
	</g>
	<g>
		<path fill="#CFDDEA" d="M635.4,174.4c-1.2,0.7-0.9,2.5-0.2,3.6c0.7,1.2,1.7,2.2,1.8,3.5c0.1,2.3-2.6,3.7-5,3.9
			c-2.3,0.2-5,0-6.6,1.6c-2.6,2.6-0.6,7-1.2,10.6c2.2-2.9,3.2-6.5,5.4-9.3c2.2-2.8,6.5-4.7,9.4-2.5c4.1-5.2,11.1-7.9,17.7-7
			c-0.3-2.1-3.2-2.6-5.1-1.7c-1.9,0.9-3.4,2.7-5.4,3.3c-3.5,1.1-6.9-1.6-9.6-4c-0.4-0.3-0.8-0.7-0.7-1.2s1-0.6,1-0.1"/>
	</g>
	<g>
		<path fill="#CFDDEA" d="M745.8,248.4c0.6,0.7,0.3,1.9-0.5,2.5c-0.7,0.6-1.7,0.8-2.6,1c-5.6,1.1-11.3,2-16.9,1.2
			c1.7,0.5,1.6,3.1,0.6,4.7s-2.4,3.1-2,4.9c0.2,1.1,1.2,2.1,0.9,3.1c-0.3,1.2-1.8,1.6-2.7,2.3c-1.6,1.3-1.6,3.8-0.9,5.8
			s1.8,3.8,1.9,5.9c0.2,2.1-1.2,4.5-3.3,4.4c2.9-8.5,10-15.4,18.6-18.1c1.2-0.4,2.5-0.7,3.3-1.6c0.7-0.7,1-1.8,1.7-2.5
			c1.2-1.1,3.1-1,4.6-1.7c1.5-0.7,2.2-3.3,0.6-3.7"/>
	</g>
</g>
</svg>
