<?xml version="1.0" encoding="utf-8"?>
<!-- Generator: Adobe Illustrator 16.0.0, SVG Export Plug-In . SVG Version: 6.00 Build 0)  -->
<!DOCTYPE svg PUBLIC "-//W3C//DTD SVG 1.1//EN" "http://www.w3.org/Graphics/SVG/1.1/DTD/svg11.dtd">
<svg version="1.1" id="圖層_1" xmlns="http://www.w3.org/2000/svg" xmlns:xlink="http://www.w3.org/1999/xlink" x="0px" y="0px"
	 width="217px" height="190px" viewBox="199.5 256.5 217 190" enable-background="new 199.5 256.5 217 190" xml:space="preserve">
<path fill="#B1A0A0" d="M231.98,395.666c2.622,15.267,9.767,29.3,29.454,35.981c9.818,3.342,25.855,6.58,36.136,7.557
	c7.248,0.668,17.889,0.977,25.188,1.028c19.636,0.205,34.748-4.575,53.973-8.739c6.631-1.438,14.649-5.089,19.944-9.304
	s8.533-11.874,5.5-17.888c-2.673-5.347-8.995-7.659-14.906-8.688c-10.538-1.902-21.486-1.49-31.818,1.285"/>
<path fill="#B1A0A0" d="M244.677,402.862c2.158,12.696,12.439,22.617,24.313,26.729c8.121,2.827,16.294,5.089,24.827,5.911
	c6.014,0.565,14.855,0.771,20.921,0.874c16.346,0.154,28.888-3.804,44.874-7.248c5.5-1.182,12.183-4.267,16.552-7.71
	c4.421-3.495,7.094-9.87,4.575-14.907c-2.211-4.42-7.505-6.374-12.389-7.248c-8.738-1.594-17.888-1.233-26.472,1.08"/>
<path fill="#59754C" d="M207.359,377.521c0.103,6.734,35.262,54.076,102.445,54.076c69.907,0,97.511-48.113,97.973-52.688
	L207.359,377.521z"/>
<path opacity="0.5" fill="#3E5831" enable-background="new    " d="M309.804,431.647c69.907,0,97.511-48.113,97.973-52.688
	l-68.159-7.299c-4.832,15.832-10.281,35.623-24.313,45.903c-14.033,10.28-21.846,11.463-34.851,10.846
	C289.397,430.466,299.215,431.647,309.804,431.647z"/>
<path opacity="0.5" fill="#3E5831" enable-background="new    " d="M309.804,431.647c69.907,0,97.511-48.113,97.973-52.688
	l-22.565,0.565c-4.832,15.832-28.785,34.954-53.459,45.902c-14.855,6.58-37.01,6.528-51.299,2.981
	C289.397,430.466,299.215,431.647,309.804,431.647z"/>
<g>
	<ellipse fill="#718B66" cx="307.799" cy="377.521" rx="100.492" ry="35.468"/>
</g>
<g>
	<ellipse fill="#4C6942" cx="307.799" cy="376.338" rx="97.305" ry="33.155"/>
</g>
<path fill="#ACBEA5" d="M210.391,368.833c0,0-6.271,6.323,0.617,16.603c6.888,10.281,32.023,24.313,74.534,26.729
	c0,0-44.207-4.369-65.282-19.79C203.04,379.782,210.391,368.833,210.391,368.833z"/>
<path fill="#ACBEA5" d="M400.426,364.104c0,0,8.481,5.654,7.454,13.365c-1.028,7.71-0.36,15.421-38.604,28.271
	c0,0,37.062-11.308,37.318-28.271C406.749,368.988,400.426,364.104,400.426,364.104z"/>
<path fill="#718B66" d="M244.162,407.025c0,0,9.253,12.337,24.931,16.963c0,0-10.28-3.598-11.309-13.107
	C257.784,410.881,248.531,409.854,244.162,407.025z"/>
<g>
	<path fill="#3D5832" d="M260.251,347.399c-29.659,5.654-49.758,16.5-49.758,28.939c0,9.304,11.309,17.734,29.506,23.799
		c-9.612-9.818-14.701-22.309-5.604-34.954C240.615,356.548,250.382,350.997,260.251,347.399z"/>
	<g>
		<path fill="#EFF3F9" d="M210.751,374.128c1.182-4.677,3.084-12.336,4.009-17.117c1.183-6.117,4.575-11.463,8.225-16.243
			c0.103-6.683-0.514-14.753,5.191-18.968c2.313-1.748,2.313-4.832,3.65-6.836c2.004-2.879,6.014-4.781,7.453-6.425
			c0.257-5.912,7.401-12.131,9.767-13.468c2.313-1.336,9.201,0.051,12.542-3.238c-0.052-0.617-0.103-1.234-0.154-1.851
			c0.72-2.981,3.188-5.294,5.963-5.603c1.028-0.103,2.159,0,3.136-0.411c1.027-0.462,1.799-1.49,2.827-1.799
			c1.079-0.309,1.747-5.397,1.131-4.421c5.14-4.626,6.939-2.57,12.079-7.196c0.926-0.874,5.86-2.005,6.939-2.724
			c7.094-4.986,17.733-3.855,22.874-4.421c5.963-0.668,6.014,4.935,11.822,6.58c2.416,0.72,8.893-0.411,11.309,0.309
			c1.234,0.36,5.758,5.654,5.243,6.939c0.669-1.439,2.776-0.925,3.599,0.411s0.977,3.084,1.748,4.472
			c0.925,1.696,2.569,2.673,4.163,3.547c3.752,2.107,7.453,4.215,11.206,6.323c2.005,1.131,3.958,2.262,5.911,3.495
			c6.117,4.061,9.355,6.631,13.416,13.21c-0.565,1.131,0.925,5.243,0.359,6.374c1.851,3.238,3.496,6.528,5.192,9.87
			c1.542,3.084,3.187,4.986,6.271,7.813c2.879,2.673,2.057,8.584,3.907,12.234c1.747,3.444,3.547,7.454,2.416,11.206
			c-0.206,0.72-0.515,1.439-0.617,2.21c-0.052,1.028,0.309,2.005,0.668,2.93c1.388,3.958,1.542,8.43,0.463,12.542
			c0,0-0.154,8.481-1.183,9.972c-1.027,1.491-17.117,25.598-94.427,25.598C230.541,409.441,207.77,386.002,210.751,374.128z"/>
	</g>
	<g>
		<path fill="#CFDDEA" d="M307.799,409.493c77.258,0,93.398-24.057,94.427-25.599c1.027-1.542,1.182-9.972,1.182-9.972
			c1.08-4.061,0.926-8.533-0.462-12.542c-0.309-0.977-0.72-1.953-0.669-2.93c0.052-0.771,0.36-1.49,0.617-2.21
			c1.131-3.752-0.72-7.762-2.416-11.206c-1.851-3.649-1.028-9.561-3.906-12.234c-3.084-2.878-4.678-4.78-6.271-7.813
			c-1.696-3.341-3.341-6.631-5.191-9.869c0.565-1.131-0.926-5.243-0.36-6.374c-4.009-6.528-7.299-9.15-13.416-13.21
			c-1.901-1.285-3.906-2.416-5.911-3.496c-3.752-2.107-7.453-4.215-11.206-6.322c-1.593-0.874-3.238-1.851-4.163-3.547
			c-0.771-1.388-0.874-3.136-1.748-4.472c-0.822-1.336-2.981-1.902-3.598-0.411c0.565-1.285-4.01-6.58-5.243-6.939
			c-2.416-0.72-8.893,0.411-11.309-0.308c-1.337-0.36-2.364-0.977-3.238-1.645c-0.565,1.336-0.874,2.776-0.617,4.164
			c0.36,2.056,2.262,3.907,4.318,3.598c-0.463,1.696-1.337,3.341-2.52,4.678c2.107,1.645,4.523,2.827,7.094,3.495
			c0.309,2.365,1.08,4.729,2.211,6.836c2.107-0.411,4.369-0.103,6.271,0.823c-2.107,0.874-0.977,4.112,0.411,5.962
			c1.388,1.851,2.211,5.243,0,5.809c1.183,0.874,2.879,1.028,4.215,0.411c0.823,2.108,0.36,4.626-1.182,6.271
			c2.621,0.925,3.341,4.318,3.289,7.093c-0.051,2.776-0.359,5.963,1.491,8.019c2.981,3.341,9.972,2.056,11.309,6.322
			c1.028,3.239-2.468,5.963-4.164,8.944c-2.313,4.009-0.925,9.767,2.981,12.285c-1.079,1.08-2.569,1.696-4.061,1.799
			c-0.309,2.981-1.542,5.911-3.547,8.173c3.855,0.309,6.22,5.654,3.804,8.738c-1.542,1.954-4.42,2.776-5.603,4.986
			c-0.617,1.131-0.668,2.416-0.977,3.649c-0.977,4.112-4.678,7.454-8.842,8.019c-2.364,0.308-4.832-0.154-7.042,0.72
			c-2.21,0.874-3.752,4.009-2.005,5.603c-4.163-0.309-6.733,4.421-10.229,6.733c-4.421,2.931-10.281,1.953-15.473,0.822
			c1.028,0.206-0.359,1.594-1.388,1.491c-13.416-1.131-26.729-2.981-39.939-5.552c-3.855-0.771-8.379-2.107-9.562-5.859
			c-7.351,0.565-15.061,2.107-21.074,6.168C249.508,404.764,273.205,409.493,307.799,409.493z"/>
	</g>
	<g opacity="0.5">
		<g>
			<path fill="#CFDDEA" d="M402.328,358.45c0.052-0.771,0.359-1.49,0.617-2.21c1.131-3.752-0.72-7.762-2.416-11.206
				c-1.851-3.649-1.028-9.561-3.907-12.234c-3.084-2.878-4.678-4.78-6.271-7.813c-1.696-3.341-3.342-6.631-5.192-9.869
				c0.565-1.131-0.925-5.243-0.359-6.374c-4.01-6.528-7.299-9.15-13.416-13.21c-1.902-1.285-3.906-2.416-5.911-3.496
				c-3.753-2.107-7.453-4.215-11.206-6.322c-1.594-0.874-3.238-1.851-4.163-3.547c-0.771-1.388-0.874-3.136-1.748-4.472
				c-0.514-0.822-1.491-1.336-2.313-1.285c-0.103,0.463-0.257,0.874-0.309,1.336c-0.462,3.547,3.188,6.014,6.22,7.916
				c2.981,1.902,6.066,5.603,4.112,8.584c4.318,4.318,9.664,7.607,15.473,9.561c1.799,0.617,3.649,1.079,5.037,2.364
				c3.701,3.444,1.646,10.229,5.038,13.981c0.977,1.08,2.364,1.799,3.238,3.033c0.977,1.439,1.079,3.239,1.131,4.986
				c0.205,6.014,0.359,12.08-1.183,17.888s4.112,12.388-1.337,14.958c-0.822,0.411-5.551,4.421-6.168,5.14
				c-1.028,1.234-3.341,0.823-3.752,2.416c-0.411,1.594-1.953,6.22-2.725,4.78c-4.575,6.374,2.21,9.047-2.416,15.421
				c-0.565,0.823-12.851,3.29-13.725,3.752c-1.439,0.822-2.775,8.687-7.556,4.472c-5.089-4.523-14.547-5.808-18.454-0.257
				c-1.182,1.646-2.313,3.701-4.317,4.01c-3.29,0.462-4.832-3.855-7.351-6.065c-3.136-2.776-7.916-2.005-12.028-1.08
				c-4.935,1.131-9.921,2.262-14.855,3.341c-1.439,0.309-2.981,0.668-4.421,0.309c-2.569-0.566-4.266-3.084-6.527-4.421
				c-5.604-3.341-12.543,0.72-18.763,2.622c-7.658,2.364-16.346,1.336-23.183-2.827c0,2.004,0,4.009-0.051,6.014
				c-1.851-6.734-10.127-8.276-17.374-8.173c12.747,9.766,39.734,18.967,88.052,18.967c77.259,0,93.399-24.056,94.427-25.598
				c1.028-1.542,1.183-9.972,1.183-9.972c1.079-4.061,0.925-8.533-0.463-12.542C402.637,360.455,402.226,359.479,402.328,358.45z"/>
		</g>
		<g>
			<path fill="#CFDDEA" d="M274.49,277.748c0.051-0.051,0.103-0.103,0.154-0.103C274.593,277.646,274.541,277.697,274.49,277.748z"
				/>
		</g>
		<g>
			<path fill="#CFDDEA" d="M270.429,294.351c-2.262-1.439-3.752-4.061-3.854-6.733c5.397-0.874,10.846-1.696,16.243-2.57
				c-1.646-3.187-3.29-6.734-4.01-10.229c-1.183,0.514-2.519,1.285-4.163,2.775c0.359,0-0.309,4.267-1.285,4.523
				c-1.08,0.309-1.851,1.337-2.827,1.799s-2.107,0.309-3.136,0.411c-2.725,0.309-5.191,2.673-5.963,5.603
				c0.052,0.617,0.103,1.233,0.154,1.851c-0.72,0.72-1.594,1.182-2.57,1.542C262.513,295.225,266.677,295.636,270.429,294.351z"/>
		</g>
	</g>
	<g>
		<path fill="#CFDDEA" d="M255.317,326.735c1.028-0.514,1.851-1.388,2.416-2.364c0.463,1.182,0.72,2.519,0.72,3.804
			c0.926-0.514,1.799-1.08,2.725-1.594c0.052,1.285,0.514,2.57,1.285,3.65c0.874-0.823,1.851-1.542,2.878-2.107
			c0.771,1.645,1.491,3.29,2.262,4.935c1.131-1.131,3.393-0.565,3.855,0.977c0.874-0.154,1.748-0.309,2.57-0.463
			c0.668-1.748,1.233-4.112-0.309-5.243c-1.336-0.977-3.341-0.154-4.883-0.72c-0.822-0.309-1.491-0.977-2.107-1.645
			c-2.159-2.416-4.369-4.78-6.528-7.196c-0.565-0.617-1.183-1.285-1.953-1.594c-1.389-0.617-2.981-0.154-4.523,0
			c-2.211,0.257-4.523-0.154-6.683,0.463s-4.164,2.776-3.393,4.883c-0.052-0.411-0.052-0.823-0.103-1.234
			c0.514,3.29-2.313,6.065-5.089,7.865c-1.542,1.028-3.393,2.673-2.622,4.369c1.953,1.645,3.958,3.341,5.911,4.986
			c0.823-1.594,1.08-3.752,2.725-4.523c0.514-0.257,1.079-0.257,1.645-0.412c2.52-0.565,4.473-2.981,4.523-5.551
			c1.594,0.103,3.239-0.72,4.062-2.107"/>
	</g>
	<g>
		<path fill="#CFDDEA" d="M291.504,312.805c-0.72-1.182,0.309-2.724,1.594-3.29s2.725-0.463,4.061-0.771
			c2.673-0.617,4.935-2.879,5.449-5.603c1.388,0,2.519,1.08,3.854,1.336c1.388,0.257,2.776-0.36,4.164-0.565
			c2.262-0.36,4.626,0.514,6.168,2.21c-2.005,0.977-4.472,0.925-6.477-0.051c0.463,1.079-0.36,2.416-1.439,2.93
			s-2.364,0.411-3.547,0.309c-1.079,1.851-2.262,3.598-3.649,5.243c-0.668-0.771-1.799-1.183-2.775-1.028
			c-0.669,0.103-1.285,0.411-1.902,0.617c-1.336,0.463-2.827,0.514-4.215,0.103c-0.72-0.206-1.439-1.182-0.822-1.542"/>
	</g>
	<g>
		<path fill="#CFDDEA" d="M283.948,357.988c0.154,0.309-0.463,0.514-0.668,0.206c-0.206-0.309,0-0.72,0.205-0.977
			c1.902-2.519,5.911-3.136,8.43-1.234c0.617,0.463,1.131,1.028,1.8,1.388c1.645,0.874,3.598,0.36,5.448,0.308
			c5.911-0.206,11.309,5.552,10.795,11.412c2.415,0.668,3.032,3.804,2.93,6.322c-1.285-0.514-1.028-2.673,0.154-3.393
			c1.182-0.72,2.724-0.462,4.112-0.206c1.388,0.257,2.878,0.514,4.112-0.206c2.004-1.233,1.696-4.369,0.257-6.22
			s-3.547-3.084-5.038-4.935c-2.004-2.57-2.981-6.528-6.168-7.248c-0.771-0.154-1.645-0.154-2.262-0.617
			c-0.668-0.462-0.874-1.336-1.49-1.85c-1.028-0.925-2.57-0.617-3.958-0.617c-4.062-0.051-7.711-3.547-11.72-2.93
			c-2.673,0.411-4.729,2.57-7.196,3.649c-3.496,1.542-7.608,0.874-11.36,1.851c-0.771,0.771,0.771,1.593,1.851,1.748
			c3.649,0.565,6.477,4.215,10.126,4.112"/>
	</g>
	<g>
		<g>
			<path fill="#CFDDEA" d="M312.888,359.633c0.103,0.103,0.205,0.206,0.359,0.36c0.257,0.257,0.72,0.154,0.977,0.051
				c0.206-0.103,0.617-0.411,0.36-0.668c-0.103-0.103-0.206-0.206-0.36-0.36c-0.257-0.257-0.72-0.154-0.977-0.051
				C313.042,359.067,312.631,359.375,312.888,359.633L312.888,359.633z"/>
		</g>
	</g>
	<g>
		<path fill="#CFDDEA" d="M385.314,375.156c-0.154,0.257,0.411,0.411,0.515,0.103c0.103-0.257-0.104-0.565-0.309-0.771
			c-2.005-1.902-5.397-2.004-7.505-0.206c-0.668,0.565-1.233,1.285-2.056,1.491c-0.463,0.103-0.926,0.051-1.389,0.154
			c-0.873,0.154-1.593,0.72-2.21,1.336c-2.159,2.005-4.061,4.318-5.552,6.888c3.188-3.29,9.099-0.977,13.057-3.239
			c0.514-0.308,1.028-0.668,1.594-0.874c1.851-0.668,3.804,0.771,4.831,2.416c0.206,0.36,0.412,0.719,0.771,0.977
			c0.463,0.308,1.028,0.308,1.594,0.308c1.799,0,3.547-0.051,5.346-0.051c0.463-1.028,1.901-1.491,2.879-0.925
			c-0.412-0.925-0.771-1.851-1.183-2.827c0.359,0.103,0.052,0.668-0.309,0.617c-0.359-0.052-0.565-0.412-0.72-0.72
			c-0.565-0.925-1.594-1.542-2.673-1.594c-0.822-0.051-1.645,0.154-2.416,0c-0.822-0.154-1.594-0.925-1.336-1.696
			c-1.285-0.257-2.52-0.668-3.701-1.131"/>
	</g>
	<g>
		<path fill="#CFDDEA" d="M219.49,353.721c0.977-0.874,2.005-1.748,3.238-2.107s2.775-0.103,3.495,0.977
			c0.309,0.463,0.463,1.028,0.72,1.542c1.183,2.261,4.318,2.364,6.888,2.107c2.52-0.257,5.706-0.257,6.939,2.004
			c0.309,0.565,0.463,1.234,0.669,1.851c0.359,0.925,0.873,1.748,1.388,2.57c2.21,3.598,3.958,7.504,5.243,11.514
			c0.103,0.36,0.205,0.771,0.205,1.182c-0.051,0.462-0.257,0.925-0.463,1.336c-0.719,1.542-1.131,3.187-1.182,4.883
			c-0.052-1.799-0.103-3.752-1.131-5.294s-3.342-2.313-4.678-1.08c0.154-1.285,0.309-2.622-0.103-3.804s-1.594-2.313-2.827-2.159
			c-1.131,0.103-2.057,1.131-3.188,1.131c-1.696,0.051-2.621-1.902-3.032-3.547c-0.411-1.645-1.028-3.65-2.673-3.958
			c-1.902-0.36-4.062,1.799-5.552,0.565c-1.233-1.028-0.411-3.238-1.542-4.421c-0.463-0.462-1.183-0.617-1.851-0.771
			c-1.08-0.206-2.211-0.411-3.29-0.617c-0.359-1.336,0.103-2.827,1.079-3.752"/>
	</g>
	<g>
		<path fill="#CFDDEA" d="M326.613,269.267c-0.617,0.36-0.463,1.285-0.104,1.851c0.36,0.617,0.874,1.131,0.926,1.799
			c0.052,1.182-1.337,1.902-2.57,2.004c-1.183,0.103-2.57,0-3.393,0.823c-1.336,1.336-0.309,3.598-0.617,5.449
			c1.131-1.491,1.646-3.341,2.776-4.781c1.131-1.439,3.341-2.416,4.832-1.285c2.107-2.673,5.705-4.061,9.098-3.598
			c-0.154-1.079-1.645-1.336-2.621-0.874c-0.977,0.462-1.748,1.388-2.776,1.696c-1.799,0.565-3.546-0.823-4.935-2.056
			c-0.205-0.154-0.411-0.36-0.359-0.617c0.052-0.257,0.514-0.308,0.514-0.051"/>
	</g>
	<g>
		<path fill="#CFDDEA" d="M383.361,307.305c0.309,0.36,0.154,0.977-0.257,1.285c-0.359,0.309-0.874,0.411-1.337,0.514
			c-2.878,0.565-5.808,1.028-8.687,0.617c0.874,0.257,0.822,1.593,0.309,2.416c-0.515,0.822-1.234,1.593-1.028,2.519
			c0.103,0.565,0.617,1.08,0.463,1.594c-0.154,0.617-0.926,0.822-1.388,1.182c-0.823,0.668-0.823,1.953-0.463,2.981
			c0.359,1.028,0.925,1.953,0.977,3.033c0.103,1.079-0.617,2.313-1.696,2.262c1.49-4.369,5.141-7.916,9.561-9.304
			c0.617-0.206,1.285-0.36,1.696-0.822c0.36-0.36,0.515-0.925,0.874-1.285c0.617-0.565,1.594-0.514,2.364-0.874
			c0.771-0.36,1.131-1.696,0.309-1.902"/>
	</g>
</g>
</svg>
