<?xml version="1.0" encoding="utf-8"?>
<!-- Generator: Adobe Illustrator 18.0.0, SVG Export Plug-In . SVG Version: 6.00 Build 0)  -->
<!DOCTYPE svg PUBLIC "-//W3C//DTD SVG 1.1//EN" "http://www.w3.org/Graphics/SVG/1.1/DTD/svg11.dtd">
<svg version="1.1" xmlns="http://www.w3.org/2000/svg" xmlns:xlink="http://www.w3.org/1999/xlink" x="0px" y="0px"
	 viewBox="0 0 103 117" enable-background="new 0 0 103 117" xml:space="preserve">
<g id="圖層_1" display="none">
	<g display="inline">
		<path fill="#F4ECA8" d="M3.3,37.1c0,0,17.4,54.1,24.8,65c7.4,10.9,28.8,16.4,44.6,7.9s28.3-16.9,26.3-28.8
			c-2-11.9-22.3-68.9-21.8-69.9C77.7,10.4,3.3,37.1,3.3,37.1z"/>
		<g>
			<path fill="#F4E992" d="M34.6,87.7c-5-13.4-14.9-40.2-6.4-48.6c3.8-3.8,10.3-10.5,16.2-16.6c-19.7,7-41,14.6-41,14.6
				s17.4,54.1,24.8,65c4.5,6.6,14.1,11.2,24.5,11.9C43.2,108.3,38,96.9,34.6,87.7z"/>
			<path fill="#F4E992" d="M99.1,81.3c-2-11.9-22.3-68.9-21.8-69.9c0.2-0.4-9.6,3-22.1,7.4c-1.7,6.8-2.6,14.8,2.8,16.4
				c9.4,3,18.8,8.4,24.8,24.3c6,15.9,6.9,24.3,6.9,34.7c0,1.8,0,3.7-0.2,5.5C96.3,94.3,100.3,88.4,99.1,81.3z"/>
		</g>
		<path fill="#FFF9C0" d="M33.7,8.4c29.5-10.5,52.8-2.9,42,16.8C70.2,35.3,31.5,55.5,9,43.1C-6.6,34.6,8.5,17.3,33.7,8.4z"/>
		<path fill="#FFFEF5" d="M9,43.1c0,0,14.1,15.3,45.9,0s21.8-26.8,21.8-26.8S77.2,29.2,51,40.1S9,43.1,9,43.1z"/>
		<path fill="#FCF3B4" d="M23.7,20.3c-6.4,5-17.4,13.9-1,16.4c16.4,2.5,22.3-6,22.3-6s-12.4,4.5-15.9,1s-3.5-2.5-4.5-6.4
			c-1-4-1-4-1-4"/>
	</g>
</g>
<g id="圖層_2">
	<g>
		<path fill="#930228" d="M53.9,54.7c14,1.1,23.4,5.7,24.8,21c1.6,17.3-8.6,31.8-26.4,31.8s-26.7-13.2-28-30.5
			C23,59.9,39.4,53.6,53.9,54.7z"/>
		<path fill="#68001B" d="M78.7,75.8c-0.6-6.6-2.7-11.3-6.1-14.5c2.6,7.6,4.1,18.8-4.2,29c-10.8,13.3-29.7,10.2-40.9,1
			c4.2,9.8,12.3,16.3,24.8,16.3C70.1,107.6,80.4,93,78.7,75.8z"/>
		<path fill="#A81E43" d="M37.8,63.9c-6.6,0-8.5,8.5-5.4,11.3c9.2,8.1,15.6,3.8,16.2,0C49.1,71.4,42.1,63.9,37.8,63.9z"/>
		<path fill="#FFFFFF" d="M41.3,69.3c1.6,1.9,0.8,5.1-1.9,4.6c-3.4-0.7-4.9-1.6-6.2-4.6c-0.9-1.9,1.1-3.2,3.5-3.2
			C39.1,66.1,39.9,67.7,41.3,69.3z"/>
		<path fill="#68001B" d="M42.9,60.9c3.2,0.8,7.8,3.5,11.9,2.7c4-0.8,5.9-1.9,7.5-1.6c1.6,0.3-3-3-9.2-3.2
			C46.9,58.5,42.9,60.9,42.9,60.9z"/>
		<path fill="#3E7216" d="M73.4,8.4c0,0-15.6,14.6-19.1,28.3c-3.5,13.7-4,26.4-4,26.4s1.6,0.7,3.2,0.4c1.6-0.3,1.1-0.9,0.3-2.6
			c-0.8-1.6-0.3-12.4,3.2-24.5c3.5-12.1,15.9-25.6,17.3-25.6c1.3,0,1.6,1.6,3.2,0.5s4.3-1.3,2.4-2.7c-1.9-1.3-3.5-1.9-4.3-1.6
			C74.7,7.3,73.4,8.4,73.4,8.4z"/>
	</g>
</g>
<g id="圖層_6" display="none">
	<g display="inline">
		<path fill="#69AD42" d="M35.4,25c0.1,2,1,6.2,5.7,8.1c4.8,1.9,10.9,4.3,12.4,4.8c1.4,0.5-6.2-2.4-5.2-6.2c1-3.8,4.6-4.3,6.7-6.2
			c2.9-2.6,4.3-4.3,5.2-1.9c1,2.4-2.4,6.7-1.4,8.6c1,1.9,1.9,5.2,1.9,6.7s5.7,1.9,7.6-1c1.9-2.9,2.9-6.7,2.4-8.6
			c-0.5-1.9,6.2,3.3,6.7,5.2c0.5,1.9-0.5,7.1-3.8,7.1c-3.3,0-6.7-0.2-8.6,0.3c-1.9,0.5,8.9,4.1,12.7-0.2c3.8-4.3,2.9-6.2,2.9-6.2
			s6.2,8.1-1,10.5c-7.1,2.4-22.5-6.2-29.6-7.6s-20.4-0.6-17.6-11.6C32.3,26.9,35.3,22.6,35.4,25z"/>
		<g>
			<path fill="#5B9B31" d="M49.9,38.4c6.6,1.3,20.3,8.8,27.9,8c0.6-2.1,1.2-4.1,1.8-6.2c-0.4,0.1-0.7,0.3-1.1,0.4
				c-0.3,0.4-0.6,0.8-1,1.2C73.8,46,63,42.4,64.9,41.9c1.9-0.5,5.2-0.3,8.6-0.3c3.3,0,4.3-5.2,3.8-7.1c-0.1-0.5-0.7-1.3-1.5-2.1
				c-1.4,2.3-3.2,4.2-5.3,5.8c-1,0.7-2.3,1.3-3.4,0.8c-2.4,1.5-6.4,1-6.4-0.2c0-1.4-1-4.8-1.9-6.7c-0.1-0.2-0.1-0.4-0.1-0.6
				c-1.5,1.3-3.5,2-5.4,1.8c-1.8-0.2-3.4-1-4.7-2.3c-0.1,0.2-0.1,0.4-0.2,0.6c-1,3.8,6.7,6.7,5.2,6.2c-1.4-0.5-7.6-2.9-12.4-4.8
				c-4.5-1.8-5.5-5.6-5.7-7.7c-0.5,1-0.7,2-0.6,3.1c0.2,2.1,1.6,4,3.5,4.8c1.6,0.6,3.4,0.6,4.9,1.4c0.1,0.8,0.1,1.5,0.2,2.3
				c-0.5,0-1,0.2-1.4,0.4C44.7,37.8,47.6,38,49.9,38.4z"/>
		</g>
		<path fill="#CE3E3E" d="M53.5,37.8C70.2,40,85.8,51.1,83.9,64.9c-1.9,13.8-28,42.3-39.5,42.8c-11.4,0.5-21.9-30.9-24.2-46.1
			C17.8,46.4,32.1,35,53.5,37.8z"/>
		<path fill="#C13333" d="M70.3,43.4c3.1,3.4,5.8,8.2,5,14.2C73.7,70.8,55.9,97,48.5,99.1s-9.7,2.6-15.2-4.8c-1.6-2.2-4-5.5-6.4-9
			c4.6,11.9,10.9,22.5,17.6,22.3c11.4-0.5,37.6-29,39.5-42.8C85.1,56.1,79.2,48.3,70.3,43.4z"/>
		<path fill="#E05A5A" d="M33.2,46c2.4-2.8,13.6-4.1,16.8-1.9c3.2,2.2-2.2,18.4-10.1,18.7C31.9,63.2,28.8,51.1,33.2,46z"/>
		
			<ellipse transform="matrix(0.9345 0.3561 -0.3561 0.9345 18.7669 -9.238)" fill="#C13333" cx="34.5" cy="46.4" rx="2.5" ry="4.7"/>
		<path fill="#FFEFD9" d="M33.5,45.9c0.6-1.6,1.4-2.1,2.1-1.8c0.7,0.3,0.9,1.2,0.4,2.7c-0.6,1.6-2.3,2.4-2.3,2.4S33,47.5,33.5,45.9z
			"/>
		<ellipse transform="matrix(0.9345 0.356 -0.356 0.9345 29.7413 -22.91)" fill="#C13333" cx="77.1" cy="69.3" rx="2.5" ry="4.7"/>
		<path fill="#FFEFD9" d="M76.2,68.8c0.7-1.5,1.6-2,2.2-1.6c0.7,0.3,0.8,1.3,0.1,2.8c-0.7,1.5-2.5,2.2-2.5,2.2S75.5,70.3,76.2,68.8z
			"/>
		
			<ellipse transform="matrix(0.9345 0.3561 -0.3561 0.9345 34.0547 -19.0832)" fill="#C13333" cx="68.9" cy="83" rx="2.5" ry="4.7"/>
		<path fill="#FFEFD9" d="M68,82.4c0.7-1.5,1.5-2,2.2-1.7s0.9,1.2,0.2,2.8c-0.7,1.5-2.4,2.2-2.4,2.2S67.3,84,68,82.4z"/>
		
			<ellipse transform="matrix(0.7479 0.6639 -0.6639 0.7479 77.6401 -16.1156)" fill="#C13333" cx="60" cy="94.2" rx="2.5" ry="4.7"/>
		<path fill="#FFEFD9" d="M59.3,93.4c1.1-1.2,2.1-1.4,2.6-0.9c0.5,0.5,0.4,1.5-0.7,2.7c-1.1,1.2-3,1.3-3,1.3S58.2,94.6,59.3,93.4z"
			/>
		
			<ellipse transform="matrix(0.9996 2.703129e-002 -2.703129e-002 0.9996 1.733 -0.6815)" fill="#C13333" cx="26.1" cy="63.8" rx="2.7" ry="4.7"/>
		<path fill="#FFEFD9" d="M25,63.5c0.1-1.6,0.8-2.4,1.6-2.3c0.8,0.1,1.3,0.9,1.2,2.6c-0.1,1.6-1.7,2.9-1.7,2.9S24.8,65.2,25,63.5z"
			/>
		
			<ellipse transform="matrix(0.9996 2.712525e-002 -2.712525e-002 0.9996 2.2525 -0.82)" fill="#C13333" cx="31.3" cy="82.6" rx="2.6" ry="4.7"/>
		<path fill="#FFEFD9" d="M30.3,82.6c0-1.7,0.6-2.4,1.3-2.5c0.8,0,1.4,0.7,1.4,2.4c0,1.7-1.3,3-1.3,3S30.3,84.2,30.3,82.6z"/>
		<path fill="#C13333" d="M46.4,102.7c-0.4,1.8-2,3-3.5,2.9c-1.5-0.2-2.4-1.8-1.9-3.5c0.4-1.8,2-3,3.5-2.9S46.8,100.9,46.4,102.7z"
			/>
		<path fill="#FFEFD9" d="M42.6,102c0.5-1.1,1.3-1.5,2.1-1.3c0.8,0.2,1.2,0.8,0.7,1.9c-0.5,1.1-2.2,1.7-2.2,1.7S42.2,103.1,42.6,102
			z"/>
		
			<ellipse transform="matrix(0.9255 0.3789 -0.3789 0.9255 20.3819 -16.6126)" fill="#C13333" cx="52.4" cy="43.5" rx="3.4" ry="4.2"/>
		<path fill="#FFEFD9" d="M51,43.1c0.4-1.4,1.3-1.9,2.3-1.6c0.9,0.3,1.5,1.1,1.1,2.6c-0.4,1.4-2.4,2.1-2.4,2.1S50.7,44.5,51,43.1z"
			/>
		
			<ellipse transform="matrix(0.9254 0.3789 -0.3789 0.9254 26.1876 -21.5976)" fill="#C13333" cx="68" cy="55.7" rx="3.4" ry="4.7"/>
		<path fill="#FFEFD9" d="M66.6,55.3c0.4-1.6,1.4-2.1,2.3-1.9c0.9,0.3,1.5,1.2,1.1,2.8s-2.5,2.4-2.5,2.4S66.2,56.9,66.6,55.3z"/>
		
			<ellipse transform="matrix(0.8422 0.5391 -0.5391 0.8422 47.8159 -21.0631)" fill="#C13333" cx="59.9" cy="71.2" rx="3.4" ry="4.7"/>
		<path fill="#FFEFD9" d="M58.8,70.3c0.9-1.4,2-1.6,2.8-1c0.8,0.5,1,1.6,0.1,3c-0.9,1.4-3.1,1.5-3.1,1.5S57.9,71.7,58.8,70.3z"/>
		
			<ellipse transform="matrix(0.9458 0.3247 -0.3247 0.9458 31.4934 -10.8513)" fill="#C13333" cx="48.3" cy="88.9" rx="3.4" ry="4.7"/>
		<path fill="#FFEFD9" d="M47.1,88.2c0.7-1.5,1.8-1.8,2.7-1.4c0.9,0.4,1.2,1.5,0.5,3c-0.7,1.5-2.9,1.9-2.9,1.9S46.3,89.7,47.1,88.2z
			"/>
		
			<ellipse transform="matrix(0.9992 4.108142e-002 -4.108142e-002 0.9992 2.4252 -1.8426)" fill="#C13333" cx="46" cy="58.1" rx="3.4" ry="4.7"/>
		<path fill="#FFEFD9" d="M44.8,57.5c0.5-1.6,1.5-2.1,2.4-1.8c0.9,0.3,1.5,1.2,1,2.8c-0.5,1.6-2.5,2.4-2.5,2.4S44.3,59.1,44.8,57.5z
			"/>
		<ellipse transform="matrix(0.9727 0.232 -0.232 0.9727 18.2403 -7.9356)" fill="#C13333" cx="42.9" cy="73.6" rx="3.4" ry="4.7"/>
		<path fill="#FFEFD9" d="M41.4,73.4c0.2-1.6,1.1-2.3,2-2.2c1,0.1,1.7,1,1.5,2.6c-0.2,1.6-2.1,2.8-2.1,2.8S41.3,75,41.4,73.4z"/>
	</g>
</g>
<g id="圖層_5" display="none">
	<g display="inline">
		<path fill="#EA6A6A" d="M21.9,44.6c0.4,7.3,5.1,8.8,9.8,8.8s6.5-9.8,13.5-7.9c7,1.9,5.6,8.8,2.8,11.6c-2.8,2.8-13.7,7.9-17.9,13
			c-4.2,5.1-5.6,15.8-2.8,18.2c2.8,2.3,17.6,4.1,25.6,3.7c11.2-0.5,26.8,0.5,25.4-6.5c-0.8-4-2.4-10.7-6.1-14
			c-2.8-2.5-10.7-2.2-13.7-1.4c0,0,8.6-6.5,10.9-10.7c2.3-4.2,5.6-15.8,0.9-26.1C67.6,27.3,55.4,18.5,41,21.3
			C26.5,24.1,21.4,36.7,21.9,44.6z"/>
		<g>
			<path fill="#D34A4A" d="M72.2,71.6c-0.4-0.4-0.9-0.6-1.5-0.9c1.6,2.6,2.9,5.6,1.4,8.2c-1.5,2.5-4.9,3-7.8,3
				c-4.9-0.1-9.8-0.9-14.7-0.6c-2.5,0.1-5.1,0.6-7.6,0.5c-5.5,0-15.7,0.3-15-5.8c-1.7,5-1.8,10.8,0.2,12.4
				c2.8,2.3,17.6,4.1,25.6,3.7c11.2-0.5,26.8,0.5,25.4-6.5C77.4,81.6,75.8,74.8,72.2,71.6z"/>
		</g>
		<path fill="#D34A4A" d="M55.6,70.9c1.5,0,3.9-0.6,6.3-1.2c-1.4,0.1-2.7,0.3-3.5,0.5c0,0,8.6-6.5,10.9-10.7
			c2.3-4.1,5.4-15.1,1.3-25.1c0.4,3.4,0.2,7.4-0.2,11.6c-0.7,7.7-4.7,10-8.1,14c-3.5,4-11.2,7.7-14.7,9.5
			C44.2,71.4,52.2,70.9,55.6,70.9z"/>
		<g>
			<path fill="#D34A4A" d="M47.9,57.2c1.8-1.5,3.7-3.1,5.9-5c4.4-3.7,2.3-7.2,1.4-11.6c-0.9-4.4-6.3-6.3-10.2-7.2
				c-4-0.9-7.7,0.7-11.4,7.2c-3.7,6.5-3.3,6.8-7.7,6.8c-1.8,0-3-1.9-4.2-3.7c1.8,1.4-0.2,9.8,10,9.8c4.7,0,6.5-9.8,13.5-7.9
				C52.2,47.4,50.8,54.4,47.9,57.2C47.9,57.2,47.9,57.2,47.9,57.2z"/>
			<path fill="#D34A4A" d="M41.6,61.5c0.1-0.1,0.2-0.1,0.3-0.2c1.3-0.7,2.4-1.5,3.6-2.3C44.4,59.8,43,60.6,41.6,61.5z"/>
		</g>
		<g>
			<path fill="#EA6A6A" d="M30.2,87.2c-1.1-0.6-2.3-1.1-3.4-1.7c0.9,1.4,2.6,1.9,4.3,2.4c8.2,2.1,16.9,4.2,25.2,2.4
				c1.5-0.3,2.9-0.8,4.4-0.7c1.1,0,2.3,0.4,3.4,0.6c1.7,0.3,3.4,0.3,5.1,0.2c1.6-0.1,3.2-0.4,4.6-1.2c1.4-0.8,2.4-2.3,2.4-3.9
				c-0.1-1.6-1.5-3.1-3.1-2.8c0.1,1.3,0,2.9-1.1,3.7c-0.5,0.3-1.1,0.4-1.7,0.5c-4.9,0.7-9.7,1.4-14.6,2.1c-2.6,0.4-5.3,0.7-8,0.8
				c-6.5,0.1-12.8-1.9-18.8-4.3"/>
		</g>
		<g>
			<path fill="#EA6A6A" d="M25.6,51.1c0.9,0.5,3.1-0.1,4.1,0c1,0.2,2.1,0.1,2.7-0.7c0.4-0.7,0.2-1.5,0.3-2.3c0.1-1.5,1.1-3,2.5-3.5
				c0.8-0.3,2.1-0.1,2,0.8c2.4-2,4.2-2.1,6.6-2.7c2.7-0.7,5.8,1.7,5.9,4.5c-1.4-2.4-4.7-4.1-7.3-3.1c-1,0.4-2,0.7-3,1.2
				c-1.3,0.6-2.7,1.8-3.6,2.8c-0.5,0.5-0.7,1.2-1.1,1.8c-0.9,1.3-1.4,2.6-3,2.7c-1.6,0.1-3.5-0.7-5.1-1"/>
		</g>
		<g>
			<path fill="#FF8D8D" d="M48.4,22.6c-2.9-1.1-3.9-0.4-6.9,0.4c-3,0.7-5.8,2.1-8.6,3.4c-0.9,0.4-1.8,0.9-2.5,1.6
				c-0.6,0.6-1,1.4-1.4,2.2c-0.9,1.7-1.8,3.4-2.7,5.1c-0.4,0.7-0.7,1.5-0.2,2.1c1.3-3.8,4.1-7.2,7.6-9.1c2.5-1.4,5.3-2.1,8.1-2.7
				c2.3-0.5,4.6-0.9,6.9-0.7c2.9,0.4,6.3,0.9,8.9,2.3c1.5,0.9,4.1,1.9,5.6,2.8c0.5-0.9-1.4-2.6-2.2-3.3c-2.4-1.8-5.9-2.1-8.6-3.5
				c-1.1-0.6-2.5-1.1-3.5-0.4"/>
		</g>
		<g>
			<path fill="#FF8D8D" d="M23.4,43.4c0.2,2.3,3.3,3.6,5.1,2.3c1.5-1.1,2.5-2.3,3.7-3.7c1-1.1,1.7-2.4,2.9-3.4c1-0.9,1.7-2.1,2.8-3
				c1.7-1.4,4.1-1.4,6.3-1.3c2.2,0.1,4.5,0.2,6.5,1.2c6.4,3.2,6.8,9.1,5.7,13.5c0.8-1.6,1.1-5.7,1.3-7.5c0.1-0.7,0.1-1.3,0-2
				c-0.2-1.2-0.9-2.2-1.7-3.1c-3-3.3-7.7-4.1-12.2-4c-9,0.1-14.5,8.6-15,9.4c-1.2,1.7-4,2.1-5.7,0.8"/>
		</g>
		<g>
			<path fill="#D34A4A" d="M30.2,32.5c-1.8,1.1-2.7,3.4-2.3,5.5c0.8,0.3,1.5-0.5,2-1.2c0.8-1.2,1.6-2.4,2.3-3.6
				c0.3-0.4,0.5-1,0.2-1.3c-0.2-0.2-0.5-0.2-0.8-0.1c-0.6,0.1-1.1,0.5-1.5,1"/>
		</g>
		<g>
			<path fill="#D34A4A" d="M54.8,28.4c-1.3-0.1-2.5-0.8-3.5,0.1c3.1,1.2,7,3,9.8,4.8c2.8,1.7,3.4,7,5,9.9c0.2-2.5,1.1-6.6-0.5-8.6
				C65.7,34.6,61.5,28.9,54.8,28.4z"/>
		</g>
		<g>
			<path fill="#B73737" d="M43.4,36.9c1.9-1,4.3-1,6.3-0.1c2,0.8,3.7,2.4,4.7,4.3c0.1,0.1,0.1,0.2,0.1,0.4c0,0.5-0.8,0.3-1.3,0.4
				c-0.6,0.1-1,0.6-1.1,1.1c-0.1,0.5,0,1.1,0.1,1.7c-0.7,0.2-1.3-0.6-1.8-1.2c-1.1-1.5-2.9-2.3-4.7-2.6c-1.8-0.3-3.7-0.1-5.5,0.3
				c-0.2,0.1-0.5,0.1-0.7,0c-0.6-0.2-0.5-1.2,0.1-1.6c0.5-0.4,1.3-0.4,1.8-0.8c0.6-0.3,0.9-1.3,0.4-1.6"/>
		</g>
		<g>
			<path fill="#B73737" d="M44,82.9c4,0,8.1,0.3,12.1,0.7c0.4,0,1,0.2,1,0.7c0,0.2-0.3,0.4-0.5,0.6c-0.8,0.5-1.5,1-2.3,1.5
				c2.5,0.2,5.1,0.1,7.5-0.4c-1.2,1.1-2.8,1.3-4.4,1.4c-3.1,0.3-6.2,0.6-9.3,1c-1.4,0.1-2.9,0.3-4.3,0c-0.8-0.1-1.5-0.4-2.2-0.6
				c-1.7-0.6-3.3-1.1-5-1.7c1.2-0.8,3.4,0.4,4.2-0.8c0.2-0.2,0.2-0.5,0.3-0.7c0.4-0.8,1.3-1.3,2.2-1.1"/>
		</g>
		<g>
			<path fill="#B73737" d="M56,66.4c-2,0.9-3.8,1.9-5.6,3.1c2.6,0.2,5.3,0.3,7.9,0.4c-0.4-1,0-2.1,0.6-2.9c0.7-0.8,1.6-1.3,2.5-1.7
				c0.5-0.2,1-0.5,1-1c0-0.4-0.4-0.7-0.9-0.8c-0.4,0-0.8,0.2-1.2,0.3c-1.4,0.7-2.9,1.3-4.3,2"/>
		</g>
		<g>
			<path fill="#FF8D8D" d="M41.5,63.9c-5.7,2.5-10.2,7.4-12.2,13.2c-0.1,0.4-0.3,0.9-0.1,1.3c0.2,0.4,0.6,0.6,1,0.7
				c2.2,0.8,4.6,0.9,7,1c6.7,0.2,13.6,0.4,20.1-1.4c-1-1.2-2.6-1.8-4.2-1.9c-1.6-0.1-3.2,0.3-4.7,0.6c-4.3,0.8-8.7,1.1-13,0.8
				c-0.8,0-1.8-0.2-2.1-1c-0.2-0.5,0-1,0.3-1.5c1.9-4.2,4.6-8.1,7.8-11.3"/>
		</g>
		<g>
			<path fill="#FF8D8D" d="M55.8,60.5c-2.5,1.7-5.1,3.5-7.9,4.7c-0.8,0.3-1.6,0.6-2.3,1.2c-1.1,0.8-1.8,2.1-2.5,3.3
				c1.1,0.1,2.1-0.3,3.1-0.9c1.6-1,3-2.3,4.6-3.3c2.6-1.6,5.8-2.4,7.7-4.9c-0.7-0.3-1.6-0.3-2.3,0.1"/>
		</g>
	</g>
</g>
<g id="圖層_4" display="none">
	<path display="inline" fill="#EDD09D" d="M86.1,80.3c11.9,4.6,4.6,16.4-12.6,13.8c-17.2-2.5-20.6-4-24.4-8.2
		c-5.6-6.2,3.2-11.3,13.4-10.2C72.8,76.7,81.8,78.6,86.1,80.3z"/>
	<path display="inline" fill="#F7E2B7" d="M86.9,80.2c11,4.2,4.2,15.1-11.7,12.8c-15.9-2.3-16.3-2-22.1-7.3
		c-5.6-5.1,2.5-10.7,12-9.7C74.5,76.9,82.8,78.6,86.9,80.2z"/>
	<path display="inline" fill="#EFD4A5" d="M26.8,67C0.1,67-1.6,57.1,3.6,54.9c5.2-2.2,18.9-4.3,28.4-2.6c9.5,1.7,19.4,3.9,15.9,9.9
		C44.5,68.3,32.9,67,26.8,67z"/>
	<path display="inline" fill="#FFEED7" d="M29.4,65.2C2.7,65.2,1,55.3,6.2,53.2c5.2-2.2,18.9-4.3,28.4-2.6
		c9.5,1.7,19.4,3.9,15.9,9.9C47.1,66.5,35.4,65.2,29.4,65.2z"/>
	<path display="inline" fill="#EFD4A5" d="M80.3,52.8c25.8-6.7,21.3,6.1,16.9,9.4c-4.5,3.4-17.2,8.9-26.8,9.7
		c-9.6,0.7-19.7,1.1-17.9-5.6C54.3,59.6,74.5,54.3,80.3,52.8z"/>
	<path display="inline" fill="#FFEED7" d="M78,51.9c25.8-6.7,22.5,3.8,18.1,7.2c-4.5,3.4-17.2,8.9-26.8,9.7
		c-9.6,0.7-19.7,1.1-17.9-5.6C53.2,56.5,72.2,53.4,78,51.9z"/>
	<path display="inline" fill="#EDD09D" d="M32.7,57.4c11.8-5,21.2,7.5,8.7,17.4C29,84.7,20.9,84.7,11.6,87.2
		c-9.3,2.5-4-10.7,2.8-16.9C21.2,64,28.4,59.2,32.7,57.4z"/>
	<path display="inline" fill="#F7E2B7" d="M33,56.8c10.9-4.7,19.5,6.9,8,16.1C29.6,82,22.1,82,13.5,84.3c-8.6,2.3-3.7-9.9,2.6-15.6
		C22.4,62.9,29,58.5,33,56.8z"/>
	<path display="inline" fill="#E8C58B" d="M62.8,57.5c12.6,8.7,15.5,22.3,0.3,15.1s-15.6-8.8-24.9-16.3c-9.3-7.5-5.8-13.9,2.9-10.2
		C49.8,49.7,58.1,54.3,62.8,57.5z"/>
	<path display="inline" fill="#EFD4A5" d="M63.3,57.5c11.6,8,14.3,20.6,0.3,13.9c-14-6.7-13.9-7.7-22.5-14.6
		c-8.6-6.9-5.8-13.3,2.2-9.9C51.3,50.4,59,54.5,63.3,57.5z"/>
	<path display="inline" fill="#EDD09D" d="M70.2,65.1c12.5,3,12.5,18.6-3.4,19.1c-15.9,0.5-16-1.2-25-4.8c-9-3.6-3.2-14.1,6-15
		C57,63.5,65.6,64,70.2,65.1z"/>
	<path display="inline" fill="#F7E2B7" d="M70.8,64.8c11.5,2.8,11.5,17.2-3.2,17.7S53.3,81.6,45,78.3C36.8,75,41.6,65,50.1,64.2
		C58.6,63.4,66.5,63.8,70.8,64.8z"/>
</g>
<g id="圖層_3" display="none">
	<g display="inline">
		<path fill="#FFDA62" d="M26.7,25c-6.1,1.6-21.4,22.6-21,29.9c0,0,13.7,8.9,17,8.5c3.2-0.4,14.6-35.6,22.6-36.8L26.7,25z"/>
		<path fill="#FFCC33" d="M43.6,27c0,0,5.7,2,12.1,3.6c6.5,1.6,12.5,27.9,12.5,27.9s-17.4,3.6-24.7,3.2C36.4,61.4,22.2,61,22.2,61
			S31.9,28.2,43.6,27z"/>
		<path fill="#EFBB18" d="M32.7,47.2c0,0,13.3-6.9,15.4-7.3c2-0.4,21.8-2,21.8,2s-2.4,10.1-21.4,9.3C29.5,50.5,32.7,47.2,32.7,47.2z
			"/>
		<path fill="#EAAE06" d="M32.7,48c7.4-5.9,38.8-2.8,39.6,0.4c0.8,3.2,5.7,21.8-0.8,23c-6.5,1.2-34.8-2-36.8-1.6
			C32.7,70.3,30.7,49.7,32.7,48z"/>
		<g opacity="0.5">
			<path fill="#FFE580" d="M53.2,43.6c-3-0.5-6.2-0.3-9.1,0.7c-1,0.3-2,0.8-3.1,1c-1.4,0.3-2.9,0.1-4.4,0.3c-1.5,0.2-3,0.8-3.6,2.2
				c3.7,1.7,8,0.1,12-0.7c8.1-1.6,16.4-0.1,24.5,1.4c-0.5-1-1-2.1-1.7-3C65.1,41.6,65.5,42,61,44"/>
		</g>
		<path fill="#FFDA62" d="M63.7,40c0,0,3-4.6,8.9-6.2c5.9-1.6,15.4-1.3,16.2,0.5c0.8,1.9,5.7,8.1-3.5,8.1C76.1,42.4,63.7,40,63.7,40
			z"/>
		<path fill="#EFBB18" d="M82.6,40c4-0.5,3.8-6.7,7-4.3c3.2,2.4,13.5,35.9,11.3,38.8c-2.2,3-10.5,9.2-12.1,7.3
			C87.2,79.9,82.6,40,82.6,40z"/>
		<path fill="#FFCC33" d="M63.7,40c3.4-1.9,16.4,0.3,18.9,0c2.4-0.3,9.4,35.6,10,39.9c0.5,4.3-18.6,4.3-22.9,3.8
			c-4.3-0.5-8.1,0.8-8.4-4C61,74.7,61.3,41.3,63.7,40z"/>
		<path fill="#EFBB18" d="M32.7,89.6c11.3-2.2,31.3-2.7,33.4-5.9c2.2-3.2,4.9-9.7,3.2-14c-1.6-4.3-12.9-13.5-19.9-14
			c-7-0.5-31.3,2.7-31.3,2.7L32.7,89.6z"/>
		<g>
			<path fill="#EAAE06" d="M32.7,89.6c11.3-2.2,31.3-2.7,33.4-5.9c2.1-3.2,4.7-9.4,3.3-13.7c-8.5,1-16.9,1.9-25.4,2.9
				c-0.9,0.1-1.8,0.2-2.5,0.7c-0.8,0.5-1.2,1.4-1.7,2.1c-2.4,3.4-7.3,4.6-10.2,7.4L32.7,89.6z"/>
		</g>
		<path fill="#FFCC33" d="M18.2,58.3C12.2,60.4,2,73.9,2,77.2c0,3.2,27.5,14.6,30.7,12.4c3.2-2.2,9.2-10.8,9.7-15.1
			C43,70.1,18.2,58.3,18.2,58.3z"/>
		<g>
			<path fill="#FFD880" d="M25.7,60.6c-1.1-1.2-2.3-2.4-3.9-2.6c-1.6-0.3-3.5,1-3.2,2.5c0.2,1,1.2,1.7,2,2.2
				c3.6,2.2,7.2,4.4,10.7,6.6c3.3,2,7.1,4.7,7.2,8.6c0.2,4.3-4.1,7.3-6.1,11.2c3,0,5.3-2.8,6.6-5.5c1.3-2.7,2.3-5.9,4.7-7.6
				c2.1-1.5,5-1.7,7.6-1.9c5.5-0.5,11-1.8,16.2-3.7c0.5-1.4-1.7-2-3.2-1.9c-8.6,0.9-17.3,1-25.9,0.2c-1.6-0.1-3.1-0.3-4.6-1
				c-3.3-1.6-5-5.5-8.4-6.9"/>
		</g>
		<g>
			<path fill="#FFE580" d="M73.4,37.7c-3.3-0.6-6.8,0.1-9.6,1.8c-0.2,0.1-0.4,0.2-0.5,0.4c-0.5,0.6,0,1.6,0.7,1.9
				c0.7,0.3,1.5,0.2,2.3,0.1c4.6-0.5,9.4,0.1,13.6,1.9c0.6,0.2,1.1,0.5,1.5,1c0.2,0.4,0.3,0.8,0.4,1.2c0.8,4.1,1.5,8.2,2.3,12.4
				c0.2,0.9,0.4,1.9,0.9,2.7c0.5,0.7,1.1,1.3,1.7,1.9c1.5,1.5,2.4,3.5,3.3,5.5c1.9-5.7-2-11.6-2.8-17.5c-0.3-2.2-0.2-4.5-0.8-6.6
				c-0.3-1-0.8-2-0.9-3.1c-0.2-2.4,1.4-4.5,3-6.3c-0.8-0.7-2.1-0.4-3,0.2c-0.9,0.6-1.6,1.5-2.6,2c-2.4,1.1-5.8-0.5-7.6,1.4"/>
		</g>
		<g>
			<path fill="#FFE580" d="M39.6,28.1c-3.1,1.4-6,3.4-8.4,5.8c-0.5,0.5-1.1,1.1-1.4,1.8c-0.6,1.1-0.7,2.5-1.4,3.5
				c-0.9,1.3-2.6,2-3.5,3.3c-1,1.5-0.8,3.4-0.6,5.2c0.4,0,0.8,0,1.2,0c3-4.5,6.6-8.7,10.6-12.3c2.9-2.6,6.5-5,10.2-4.3
				c1,0.2,2.6,0.2,2.6-0.9c-0.1-1-1.7-1.2-1.7-2.2c-2.7-0.7-5.5-0.8-8.2-0.1"/>
		</g>
	</g>
</g>
</svg>
